<?xml version="1.0" encoding="UTF-8"?>
<!-- Generated by Pixelmator Pro 3.6.18 -->
<svg width="281" height="253" viewBox="0 0 281 253" xmlns="http://www.w3.org/2000/svg">
    <path id="graduationcap" fill="#f5f5f5" fill-rule="evenodd" stroke="none" d="M 270.069641 53.951767 C 273.572754 55.55397 276.188232 57.672501 277.91626 60.307541 C 279.644348 62.942551 280.508423 65.688232 280.508423 68.544678 C 280.508423 71.400024 279.644348 74.112244 277.91626 76.681458 C 276.188232 79.250671 273.572754 81.368927 270.069641 83.036346 L 168.519928 129.566895 C 163.117218 132.011353 158.129913 133.810059 153.557953 134.963074 C 148.985992 136.116058 144.551483 136.655914 140.254181 136.582672 C 135.95694 136.655914 131.54068 136.117767 127.005371 134.968201 C 122.470062 133.818634 117.49765 132.018219 112.087982 129.566895 L 67.253479 108.993256 L 130.315002 79.618561 C 133.569733 80.553558 137.018951 81.021057 140.66275 81.021057 C 144.510284 81.021057 148.148041 80.48175 151.576141 79.403137 C 155.004242 78.324524 157.808563 76.835083 159.989288 74.934784 C 162.169952 73.034485 163.260284 70.90448 163.260284 68.544678 C 163.260284 66.184906 162.169952 64.074921 159.989288 62.214676 C 157.808563 60.354446 155.002472 58.903336 151.570953 57.861343 C 148.139435 56.819351 144.503448 56.298386 140.66275 56.298386 C 136.80722 56.298386 133.147156 56.819351 129.682434 57.861343 C 126.217712 58.903336 123.378448 60.356155 121.164581 62.219864 C 118.950714 64.083496 117.843811 66.191772 117.843811 68.544678 C 117.843811 69.321747 118.075531 70.05188 118.539032 70.735107 L 52.003082 101.814392 L 10.438721 83.036346 C 6.935669 81.390686 4.320129 79.277832 2.592072 76.697754 C 0.864014 74.117676 0 71.400024 0 68.544678 C 0 65.688232 0.864014 62.942551 2.592072 60.307541 C 4.320129 57.672501 6.935669 55.55397 10.438721 53.951767 L 112.087982 7.522537 C 117.432404 5.07692 122.388519 3.279617 126.956451 2.13063 C 131.524384 0.981644 135.95694 0.439774 140.254181 0.50502 C 144.551483 0.439774 148.985992 0.981644 153.557953 2.13063 C 158.129913 3.279617 163.117218 5.07692 168.519928 7.522537 Z M 66.956512 125.067635 L 105.942535 142.908386 C 118.378876 148.632751 129.81601 151.421661 140.254181 151.275177 C 150.706146 151.421661 162.143219 148.632751 174.565857 142.908386 L 242.039063 111.933838 L 242.039063 146.197449 C 242.039063 154.183167 239.620361 161.680664 234.782959 168.690216 C 229.945496 175.699768 223.041626 181.880646 214.071167 187.233093 C 205.100647 192.58551 194.377075 196.770294 181.900085 199.787537 C 169.423126 202.804779 155.54129 204.313385 140.254181 204.313385 C 125.072388 204.313385 111.274963 202.779602 98.861481 199.712006 C 86.448029 196.644409 75.813141 192.441895 66.956512 187.10434 Z M 38.471039 112.053986 L 52.519806 118.480988 L 52.519806 175.645935 C 47.943268 170.969849 44.457733 166.026367 42.063019 160.815247 C 39.668365 155.604156 38.471039 150.731598 38.471039 146.197449 Z M 52.519806 210.304382 L 52.519806 175.645935 C 54.435547 177.792877 56.606476 179.823029 59.032623 181.736481 C 61.458771 183.649963 64.100067 185.439209 66.956512 187.10434 L 66.956512 210.316406 Z M 43.813141 211.849335 C 43.813141 207.584106 45.09314 204.170074 47.653198 201.607147 C 50.213226 199.04425 53.628693 197.762787 57.899658 197.762787 L 61.466766 197.762787 C 65.66449 197.762787 69.045044 199.04425 71.608551 201.607147 C 74.172028 204.170074 75.453766 207.584106 75.453766 211.849335 L 75.453766 239.013031 C 75.453766 243.285126 74.172028 246.684265 71.608551 249.210571 C 69.045044 251.736862 65.66449 253 61.466766 253 L 57.899658 253 C 53.628693 253 50.213226 251.736862 47.653198 249.210571 C 45.09314 246.684265 43.813141 243.285126 43.813141 239.013031 Z"/>
</svg>
